<?xml version="1.0" encoding="UTF-8"?>
<svg xmlns="http://www.w3.org/2000/svg" xmlns:xlink="http://www.w3.org/1999/xlink" width="1365px" height="1365px" viewBox="0 0 512 512" version="1.1">
<g id="surface1">
<path style=" stroke:none;fill-rule:nonzero;fill:rgb(0%,0%,0%);fill-opacity:1;" d="M 163.898438 186.5 C 159.601562 186.648438 156 186.851562 155.898438 187 C 155.800781 187.148438 152.148438 193.199219 147.75 200.5 C 139.699219 214 125.75 236.449219 117.351562 249.5 L 112.699219 256.75 L 109.101562 256.898438 C 107.101562 257 105.5 256.949219 105.5 256.800781 C 105.5 256.648438 107.949219 252.75 110.949219 248.148438 C 113.949219 243.550781 118.101562 237.148438 120.148438 234 C 122.199219 230.851562 124.351562 227.449219 124.949219 226.5 L 125.949219 224.75 L 118 209.5 C 113.648438 201.101562 109.199219 192.648438 108.148438 190.75 L 106.25 187.25 L 86.800781 186.851562 C 76.148438 186.601562 67.300781 186.5 67.199219 186.648438 C 67.101562 186.75 72.5 199.199219 79.199219 214.300781 C 91.800781 242.75 97.148438 255.398438 108.75 284.25 C 117.101562 304.949219 121.5 315.550781 122.148438 316.398438 C 122.5 316.851562 124.601562 317 130.449219 316.898438 L 138.25 316.75 L 143.648438 303.75 C 155 276.550781 178.5 221.699219 188.550781 198.898438 C 191.550781 192.148438 194 186.449219 194 186.300781 C 194 185.949219 175.5 186.050781 163.898438 186.5 Z M 150.75 227.199219 C 147.601562 235.648438 145 242.75 145 243 C 145 243.300781 148.101562 243.5 152.5 243.5 C 156.648438 243.5 160 243.699219 160 243.949219 C 160 244.148438 159.601562 244.898438 159.050781 245.550781 C 158.550781 246.199219 151.199219 256.648438 142.75 268.75 C 128.300781 289.398438 126.800781 291.449219 125.898438 291.5 C 124.550781 291.5 125.148438 285.75 127.550781 275.5 C 128.851562 269.949219 131.75 259.300781 132.351562 257.601562 C 132.550781 257.148438 131.449219 257 127.75 257 C 123.851562 257 122.949219 256.851562 123.148438 256.300781 C 123.300781 255.949219 126.75 250.949219 130.851562 245.199219 C 134.949219 239.449219 141.101562 230.699219 144.5 225.800781 C 150.550781 217.101562 156.050781 210.398438 156.351562 211.351562 C 156.449219 211.601562 153.949219 218.75 150.75 227.199219 Z M 150.75 227.199219 "/>
<path style=" stroke:none;fill-rule:nonzero;fill:rgb(0%,0%,0%);fill-opacity:1;" d="M 214 251.75 L 214 316.050781 L 217.148438 315.898438 L 220.25 315.75 L 220.398438 251.601562 L 220.5 187.5 L 214 187.5 Z M 214 251.75 "/>
<path style=" stroke:none;fill-rule:nonzero;fill:rgb(0%,0%,0%);fill-opacity:1;" d="M 235.25 188.351562 C 235.648438 189.5 252.75 237.75 254.101562 241.601562 L 255.101562 244.5 L 267.851562 244.5 L 269.449219 240.101562 C 272 233.25 288 188 288 187.75 C 288 187.601562 284.898438 187.5 281.101562 187.5 L 274.199219 187.5 L 271.300781 196.601562 C 264.148438 219.25 261.300781 228 261 228 C 260.851562 228 260.449219 227.148438 260.148438 226.101562 C 259.898438 225.101562 257.25 216.601562 254.300781 207.25 C 251.351562 197.898438 248.75 189.699219 248.550781 189 C 248.148438 187.75 248.148438 187.75 241.5 187.601562 C 235.351562 187.5 234.898438 187.550781 235.25 188.351562 Z M 235.25 188.351562 "/>
<path style=" stroke:none;fill-rule:nonzero;fill:rgb(0%,0%,0%);fill-opacity:1;" d="M 293.5 216 L 293.5 244.5 L 305.5 244.5 L 305.5 187.5 L 293.5 187.5 Z M 293.5 216 "/>
<path style=" stroke:none;fill-rule:nonzero;fill:rgb(0%,0%,0%);fill-opacity:1;" d="M 329.449219 188.851562 C 329.148438 189.601562 327.148438 195.398438 325 201.75 C 322.851562 208.050781 319.800781 216.949219 318.25 221.5 C 313.699219 234.648438 310.5 244.101562 310.5 244.351562 C 310.5 244.449219 313.5 244.449219 317.148438 244.398438 L 323.75 244.25 L 325.601562 238.75 L 327.449219 233.25 L 346.148438 233.25 L 347.300781 236.75 C 347.949219 238.648438 348.851562 241.199219 349.300781 242.351562 L 350.101562 244.5 L 356.050781 244.5 C 360.648438 244.5 362 244.351562 362 243.851562 C 362 243.199219 352.601562 215 346.148438 196.25 L 343.25 187.75 L 336.601562 187.601562 L 330 187.449219 Z M 340.648438 214.25 L 342.898438 222.25 L 337.148438 222.398438 C 333.949219 222.449219 331.25 222.398438 331.101562 222.25 C 330.949219 222.101562 331.101562 221 331.398438 219.851562 C 331.75 218.699219 332.949219 214.148438 334.050781 209.75 C 335.148438 205.351562 336.199219 201.398438 336.351562 201 C 336.648438 200.199219 337.101562 201.601562 340.648438 214.25 Z M 340.648438 214.25 "/>
<path style=" stroke:none;fill-rule:nonzero;fill:rgb(0%,0%,0%);fill-opacity:1;" d="M 237.5 289 L 237.5 316 L 254.898438 315.898438 L 272.25 315.75 L 272.398438 310.851562 L 272.550781 305.898438 L 261 306.101562 L 249.5 306.25 L 249.199219 304.601562 C 249 303.699219 249.050781 300.851562 249.25 298.25 L 249.601562 293.5 L 268.5 293.5 L 268.5 283.5 L 249.5 283.5 L 249.5 272.5 L 272 272.5 L 272 262 L 237.5 262 Z M 237.5 289 "/>
<path style=" stroke:none;fill-rule:nonzero;fill:rgb(0%,0%,0%);fill-opacity:1;" d="M 279 289 L 279 316 L 290.25 316 L 290.25 299.5 C 290.25 290.449219 290.398438 283 290.550781 283 C 290.75 283 292.050781 285.300781 293.5 288.101562 C 294.949219 290.949219 297.351562 295.398438 298.800781 298.050781 C 300.25 300.648438 301.699219 303.449219 301.949219 304.148438 C 302.25 304.898438 302.699219 305.5 303 305.5 C 303.300781 305.5 303.449219 305.699219 303.300781 305.949219 C 303.148438 306.199219 303.351562 306.550781 303.800781 306.699219 C 304.25 306.851562 304.5 307.300781 304.351562 307.648438 C 304.25 307.949219 304.5 308.550781 304.949219 308.898438 C 305.398438 309.300781 305.449219 309.398438 305.101562 309.25 C 304.550781 308.949219 304.5 309.101562 304.949219 309.949219 C 305.300781 310.5 305.699219 311 305.949219 311 C 306.148438 311 306.851562 312.148438 307.5 313.5 L 308.699219 316.050781 L 315.199219 315.898438 L 321.75 315.75 L 321.800781 288.851562 L 321.800781 262 L 309.898438 262 L 310.050781 277.25 C 310.148438 285.648438 310.148438 292.5 310 292.5 C 309.851562 292.5 309.398438 292 309.050781 291.351562 C 307.949219 289.699219 296.949219 270.300781 294.550781 265.851562 L 292.398438 262 L 279 262 Z M 279 289 "/>
<path style=" stroke:none;fill-rule:nonzero;fill:rgb(0%,0%,0%);fill-opacity:1;" d="M 329 289 L 329 316 L 363.5 316 L 363.5 313.300781 C 363.5 311.851562 363.648438 309.601562 363.800781 308.300781 L 364.148438 305.949219 L 352.699219 306.050781 L 341.25 306.101562 L 341.101562 299.800781 L 340.949219 293.5 L 360 293.5 L 360 283.5 L 341 283.5 L 341 272.5 L 363.5 272.5 L 363.5 262 L 329 262 Z M 329 289 "/>
<path style=" stroke:none;fill-rule:nonzero;fill:rgb(0%,0%,0%);fill-opacity:1;" d="M 370.5 289 L 370.5 316 L 382.5 316 L 382.5 296.5 L 388.851562 296.5 L 393 305.601562 C 395.300781 310.648438 397.351562 315.050781 397.648438 315.351562 C 398 315.800781 399.949219 316 404.300781 316 C 407.699219 316 410.5 315.898438 410.5 315.75 C 410.5 315.601562 408.199219 310.851562 405.398438 305.199219 C 402.351562 299.101562 400.5 294.800781 400.800781 294.648438 C 401.101562 294.550781 402.398438 293.800781 403.648438 293.050781 C 408.25 290.101562 410.449219 282.199219 409.050781 273.699219 C 408.300781 269.398438 406.851562 266.699219 404.25 264.898438 C 400.648438 262.398438 397.648438 262 383.398438 262 L 370.5 262 Z M 394.300781 272.25 C 397.300781 273.5 398.449219 278.351562 396.601562 282 C 395.351562 284.550781 394 285 387.898438 285 L 382.5 285 L 382.5 271.5 L 387.5 271.5 C 390.800781 271.5 393.148438 271.75 394.300781 272.25 Z M 394.300781 272.25 "/>
<path style=" stroke:none;fill-rule:nonzero;fill:rgb(0%,0%,0%);fill-opacity:1;" d="M 428.199219 281.101562 C 428.25 291.648438 428.101562 301.050781 427.851562 302.050781 C 427.648438 303.050781 426.949219 304.449219 426.25 305.199219 C 425.199219 306.351562 424.75 306.449219 422.648438 306.25 C 420.75 306.101562 420.550781 306.101562 421.75 306.449219 C 423 306.800781 423.050781 306.898438 422.101562 306.949219 C 421.5 306.949219 420.148438 306.648438 419.148438 306.25 C 418.199219 305.851562 417.300781 305.5 417.199219 305.5 C 417.101562 305.5 417 307.75 417 310.449219 C 417 316.199219 416.800781 316 422.449219 316 C 431.449219 316 436.648438 312.898438 439.300781 306 C 440.101562 304.050781 440.199219 301.148438 440.398438 282.851562 L 440.601562 262 L 428.148438 262 Z M 428.199219 281.101562 "/>
<path style=" stroke:none;fill-rule:nonzero;fill:rgb(0%,0%,0%);fill-opacity:1;" d="M 448 289 L 448 316 L 459 316 L 459 262 L 448 262 Z M 448 289 "/>
<path style=" stroke:none;fill-rule:nonzero;fill:rgb(0%,0%,0%);fill-opacity:1;" d="M 290.699219 307.75 C 290.699219 310.199219 290.75 311.300781 290.851562 310.148438 C 290.949219 309 290.949219 306.949219 290.851562 305.648438 C 290.75 304.351562 290.699219 305.25 290.699219 307.75 Z M 290.699219 307.75 "/>
</g>
</svg>
