<?xml version="1.0" encoding="UTF-8"?>
<svg xmlns="http://www.w3.org/2000/svg" xmlns:xlink="http://www.w3.org/1999/xlink" width="74px" height="24px" viewBox="0 0 74 24" version="1.1">
<g id="surface1">
<path style=" stroke:none;fill-rule:nonzero;fill:rgb(0%,0%,0%);fill-opacity:1;" d="M 23.6875 8.742188 C 23.066406 8.75 22.546875 8.757812 22.53125 8.765625 C 22.519531 8.773438 21.992188 9.054688 21.355469 9.398438 C 20.191406 10.03125 18.175781 11.082031 16.960938 11.695312 L 16.289062 12.035156 L 15.769531 12.042969 C 15.480469 12.046875 15.25 12.042969 15.25 12.039062 C 15.25 12.03125 15.601562 11.847656 16.035156 11.632812 C 16.46875 11.417969 17.070312 11.117188 17.367188 10.96875 C 17.660156 10.820312 17.972656 10.660156 18.058594 10.617188 L 18.203125 10.535156 L 17.054688 9.820312 C 16.425781 9.425781 15.78125 9.03125 15.632812 8.941406 L 15.355469 8.777344 L 12.546875 8.757812 C 11.007812 8.746094 9.726562 8.742188 9.710938 8.75 C 9.699219 8.753906 10.480469 9.335938 11.445312 10.046875 C 13.269531 11.378906 14.042969 11.972656 15.71875 13.324219 C 16.925781 14.292969 17.5625 14.792969 17.65625 14.832031 C 17.707031 14.851562 18.007812 14.859375 18.855469 14.855469 L 19.980469 14.847656 L 20.761719 14.238281 C 22.402344 12.964844 25.800781 10.390625 27.25 9.324219 C 27.683594 9.007812 28.039062 8.738281 28.039062 8.734375 C 28.039062 8.714844 25.367188 8.722656 23.6875 8.742188 Z M 21.789062 10.648438 C 21.332031 11.046875 20.957031 11.378906 20.957031 11.390625 C 20.957031 11.40625 21.40625 11.414062 22.042969 11.414062 C 22.640625 11.414062 23.125 11.421875 23.125 11.433594 C 23.125 11.445312 23.066406 11.480469 22.988281 11.511719 C 22.914062 11.539062 21.851562 12.03125 20.632812 12.597656 C 18.542969 13.566406 18.328125 13.660156 18.195312 13.664062 C 18 13.664062 18.089844 13.394531 18.433594 12.914062 C 18.621094 12.652344 19.042969 12.15625 19.128906 12.074219 C 19.15625 12.054688 19 12.046875 18.464844 12.046875 C 17.898438 12.046875 17.769531 12.039062 17.800781 12.015625 C 17.820312 11.996094 18.320312 11.761719 18.910156 11.492188 C 19.503906 11.222656 20.394531 10.8125 20.886719 10.585938 C 21.757812 10.175781 22.554688 9.863281 22.597656 9.90625 C 22.613281 9.917969 22.25 10.253906 21.789062 10.648438 Z M 21.789062 10.648438 "/>
<path style=" stroke:none;fill-rule:nonzero;fill:rgb(0%,0%,0%);fill-opacity:1;" d="M 30.929688 11.800781 L 30.929688 14.816406 L 31.386719 14.808594 L 31.832031 14.800781 L 31.855469 11.792969 L 31.871094 8.789062 L 30.929688 8.789062 Z M 30.929688 11.800781 "/>
<path style=" stroke:none;fill-rule:nonzero;fill:rgb(0%,0%,0%);fill-opacity:1;" d="M 34 8.828125 C 34.058594 8.882812 36.53125 11.144531 36.726562 11.324219 L 36.871094 11.460938 L 38.710938 11.460938 L 38.945312 11.253906 C 39.3125 10.933594 41.625 8.8125 41.625 8.800781 C 41.625 8.792969 41.175781 8.789062 40.628906 8.789062 L 39.628906 8.789062 L 39.210938 9.214844 C 38.179688 10.277344 37.765625 10.6875 37.722656 10.6875 C 37.699219 10.6875 37.644531 10.648438 37.601562 10.597656 C 37.5625 10.550781 37.179688 10.152344 36.753906 9.714844 C 36.328125 9.277344 35.953125 8.890625 35.921875 8.859375 C 35.867188 8.800781 35.867188 8.800781 34.90625 8.792969 C 34.015625 8.789062 33.949219 8.792969 34 8.828125 Z M 34 8.828125 "/>
<path style=" stroke:none;fill-rule:nonzero;fill:rgb(0%,0%,0%);fill-opacity:1;" d="M 42.421875 10.125 L 42.421875 11.460938 L 44.15625 11.460938 L 44.15625 8.789062 L 42.421875 8.789062 Z M 42.421875 10.125 "/>
<path style=" stroke:none;fill-rule:nonzero;fill:rgb(0%,0%,0%);fill-opacity:1;" d="M 47.617188 8.851562 C 47.574219 8.886719 47.285156 9.160156 46.972656 9.457031 C 46.660156 9.753906 46.222656 10.167969 45.996094 10.382812 C 45.339844 11 44.878906 11.441406 44.878906 11.453125 C 44.878906 11.457031 45.3125 11.457031 45.839844 11.457031 L 46.792969 11.449219 L 47.058594 11.191406 L 47.328125 10.933594 L 50.03125 10.933594 L 50.195312 11.097656 C 50.289062 11.1875 50.417969 11.304688 50.484375 11.359375 L 50.601562 11.460938 L 51.460938 11.460938 C 52.125 11.460938 52.320312 11.453125 52.320312 11.429688 C 52.320312 11.398438 50.960938 10.078125 50.03125 9.199219 L 49.609375 8.800781 L 48.648438 8.792969 L 47.695312 8.785156 Z M 49.234375 10.042969 L 49.558594 10.417969 L 48.730469 10.425781 C 48.265625 10.425781 47.875 10.425781 47.855469 10.417969 C 47.832031 10.410156 47.855469 10.359375 47.898438 10.304688 C 47.949219 10.25 48.121094 10.039062 48.28125 9.832031 C 48.441406 9.625 48.589844 9.441406 48.613281 9.421875 C 48.65625 9.382812 48.722656 9.449219 49.234375 10.042969 Z M 49.234375 10.042969 "/>
<path style=" stroke:none;fill-rule:nonzero;fill:rgb(0%,0%,0%);fill-opacity:1;" d="M 34.328125 13.546875 L 34.328125 14.8125 L 36.839844 14.808594 L 39.347656 14.800781 L 39.371094 14.570312 L 39.390625 14.339844 L 37.722656 14.347656 L 36.0625 14.355469 L 36.015625 14.277344 C 35.988281 14.234375 35.996094 14.101562 36.023438 13.980469 L 36.074219 13.757812 L 38.808594 13.757812 L 38.808594 13.289062 L 36.0625 13.289062 L 36.0625 12.773438 L 39.3125 12.773438 L 39.3125 12.28125 L 34.328125 12.28125 Z M 34.328125 13.546875 "/>
<path style=" stroke:none;fill-rule:nonzero;fill:rgb(0%,0%,0%);fill-opacity:1;" d="M 40.324219 13.546875 L 40.324219 14.8125 L 41.949219 14.8125 L 41.949219 14.039062 C 41.949219 13.613281 41.972656 13.265625 41.992188 13.265625 C 42.023438 13.265625 42.210938 13.375 42.421875 13.503906 C 42.628906 13.636719 42.976562 13.847656 43.1875 13.972656 C 43.394531 14.09375 43.605469 14.222656 43.640625 14.257812 C 43.683594 14.292969 43.75 14.320312 43.792969 14.320312 C 43.835938 14.320312 43.859375 14.328125 43.835938 14.339844 C 43.816406 14.351562 43.84375 14.371094 43.910156 14.375 C 43.972656 14.382812 44.011719 14.40625 43.988281 14.421875 C 43.972656 14.433594 44.011719 14.464844 44.074219 14.480469 C 44.140625 14.5 44.148438 14.503906 44.097656 14.496094 C 44.015625 14.480469 44.011719 14.488281 44.074219 14.527344 C 44.125 14.554688 44.183594 14.578125 44.21875 14.578125 C 44.25 14.578125 44.347656 14.632812 44.445312 14.695312 L 44.617188 14.816406 L 45.554688 14.808594 L 46.503906 14.800781 L 46.511719 13.539062 L 46.511719 12.28125 L 44.789062 12.28125 L 44.8125 12.996094 C 44.828125 13.390625 44.828125 13.710938 44.804688 13.710938 C 44.78125 13.710938 44.71875 13.6875 44.667969 13.65625 C 44.507812 13.578125 42.917969 12.671875 42.570312 12.460938 L 42.261719 12.28125 L 40.324219 12.28125 Z M 40.324219 13.546875 "/>
<path style=" stroke:none;fill-rule:nonzero;fill:rgb(0%,0%,0%);fill-opacity:1;" d="M 47.550781 13.546875 L 47.550781 14.8125 L 52.539062 14.8125 L 52.539062 14.6875 C 52.539062 14.617188 52.558594 14.511719 52.582031 14.453125 L 52.632812 14.339844 L 50.976562 14.347656 L 49.320312 14.347656 L 49.300781 14.054688 L 49.277344 13.757812 L 52.03125 13.757812 L 52.03125 13.289062 L 49.285156 13.289062 L 49.285156 12.773438 L 52.539062 12.773438 L 52.539062 12.28125 L 47.550781 12.28125 Z M 47.550781 13.546875 "/>
<path style=" stroke:none;fill-rule:nonzero;fill:rgb(0%,0%,0%);fill-opacity:1;" d="M 53.550781 13.546875 L 53.550781 14.8125 L 55.285156 14.8125 L 55.285156 13.898438 L 56.199219 13.898438 L 56.800781 14.324219 C 57.132812 14.5625 57.429688 14.769531 57.472656 14.78125 C 57.523438 14.804688 57.804688 14.8125 58.433594 14.8125 C 58.925781 14.8125 59.332031 14.808594 59.332031 14.800781 C 59.332031 14.792969 58.996094 14.570312 58.59375 14.304688 C 58.152344 14.019531 57.886719 13.820312 57.929688 13.8125 C 57.972656 13.808594 58.160156 13.773438 58.339844 13.738281 C 59.003906 13.597656 59.324219 13.226562 59.121094 12.828125 C 59.011719 12.628906 58.800781 12.5 58.425781 12.417969 C 57.90625 12.300781 57.472656 12.28125 55.414062 12.28125 L 53.550781 12.28125 Z M 56.988281 12.761719 C 57.421875 12.820312 57.589844 13.046875 57.320312 13.21875 C 57.140625 13.339844 56.945312 13.359375 56.0625 13.359375 L 55.285156 13.359375 L 55.285156 12.726562 L 56.007812 12.726562 C 56.484375 12.726562 56.824219 12.738281 56.988281 12.761719 Z M 56.988281 12.761719 "/>
<path style=" stroke:none;fill-rule:nonzero;fill:rgb(0%,0%,0%);fill-opacity:1;" d="M 61.886719 13.175781 C 61.894531 13.671875 61.875 14.113281 61.835938 14.160156 C 61.808594 14.207031 61.707031 14.269531 61.605469 14.304688 C 61.453125 14.359375 61.390625 14.363281 61.085938 14.355469 C 60.8125 14.347656 60.78125 14.347656 60.957031 14.363281 C 61.136719 14.382812 61.144531 14.386719 61.007812 14.386719 C 60.921875 14.386719 60.726562 14.375 60.582031 14.355469 C 60.441406 14.335938 60.3125 14.320312 60.296875 14.320312 C 60.285156 14.320312 60.269531 14.425781 60.269531 14.550781 C 60.269531 14.820312 60.242188 14.8125 61.058594 14.8125 C 62.359375 14.8125 63.109375 14.667969 63.492188 14.34375 C 63.609375 14.253906 63.621094 14.117188 63.652344 13.257812 L 63.679688 12.28125 L 61.882812 12.28125 Z M 61.886719 13.175781 "/>
<path style=" stroke:none;fill-rule:nonzero;fill:rgb(0%,0%,0%);fill-opacity:1;" d="M 64.75 13.546875 L 64.75 14.8125 L 66.339844 14.8125 L 66.339844 12.28125 L 64.75 12.28125 Z M 64.75 13.546875 "/>
<path style=" stroke:none;fill-rule:nonzero;fill:rgb(0%,0%,0%);fill-opacity:1;" d="M 42.015625 14.425781 C 42.015625 14.539062 42.023438 14.59375 42.035156 14.539062 C 42.050781 14.484375 42.050781 14.386719 42.035156 14.328125 C 42.023438 14.265625 42.015625 14.308594 42.015625 14.425781 Z M 42.015625 14.425781 "/>
</g>
</svg>
