<?xml version="1.0" standalone="no"?>
<!DOCTYPE svg PUBLIC "-//W3C//DTD SVG 20010904//EN"
 "http://www.w3.org/TR/2001/REC-SVG-20010904/DTD/svg10.dtd">
<svg version="1.0" xmlns="http://www.w3.org/2000/svg"
 width="1024.000000pt" height="1024.000000pt" viewBox="0 0 1024.000000 1024.000000"
 preserveAspectRatio="xMidYMid meet">

<g transform="translate(0.000000,1024.000000) scale(0.100000,-0.100000)"
fill="#000000" stroke="none">
<path d="M3278 6510 c-86 -3 -158 -7 -160 -10 -2 -3 -75 -124 -163 -270 -161
-270 -440 -719 -608 -980 l-93 -145 -72 -3 c-40 -2 -72 -1 -72 2 0 3 49 81
109 173 60 92 143 220 184 283 41 63 84 131 96 150 l20 35 -159 305 c-87 168
-176 337 -197 375 l-38 70 -389 8 c-213 5 -390 7 -392 4 -2 -2 106 -251 240
-553 252 -569 359 -822 591 -1399 167 -414 255 -626 268 -643 7 -9 49 -12 166
-10 l156 3 108 260 c227 544 697 1641 898 2097 60 135 109 249 109 252 0 7
-370 5 -602 -4z m-263 -814 c-63 -169 -115 -311 -115 -316 0 -6 62 -10 150
-10 83 0 150 -4 150 -9 0 -4 -8 -19 -19 -32 -10 -13 -157 -222 -326 -464 -289
-413 -319 -454 -337 -455 -27 0 -15 115 33 320 26 111 84 324 96 358 4 9 -18
12 -92 12 -78 0 -96 3 -92 14 3 7 72 107 154 222 82 115 205 290 273 388 121
174 231 308 237 289 2 -5 -48 -148 -112 -317z"/>
<path d="M4280 5205 l0 -1286 63 3 62 3 3 1283 2 1282 -65 0 -65 0 0 -1285z"/>
<path d="M4705 6473 c8 -23 350 -988 377 -1065 l20 -58 128 0 127 0 32 88 c51
137 371 1042 371 1047 0 3 -62 5 -138 5 l-138 0 -58 -182 c-143 -453 -200
-628 -206 -628 -3 0 -11 17 -17 38 -5 20 -58 190 -117 377 -59 187 -111 351
-115 365 -8 25 -8 25 -141 28 -123 2 -132 1 -125 -15z"/>
<path d="M5870 5920 l0 -570 120 0 120 0 0 570 0 570 -120 0 -120 0 0 -570z"/>
<path d="M6589 6463 c-6 -15 -46 -131 -89 -258 -43 -126 -104 -304 -135 -395
-91 -263 -155 -452 -155 -457 0 -2 60 -2 133 -1 l132 3 37 110 37 110 187 0
187 0 23 -70 c13 -38 31 -89 40 -112 l16 -43 119 0 c92 0 119 3 119 13 0 13
-188 577 -317 952 l-58 170 -133 3 -132 3 -11 -28z m224 -508 l45 -160 -115
-3 c-64 -1 -118 0 -121 3 -3 3 0 25 6 48 7 23 31 114 53 202 22 88 43 167 46
175 6 16 15 -12 86 -265z"/>
<path d="M4750 4460 l0 -540 348 2 347 3 3 98 3 99 -231 -4 -230 -3 -6 33 c-4
18 -3 75 1 127 l7 95 189 0 189 0 0 100 0 100 -190 0 -190 0 0 110 0 110 225
0 225 0 0 105 0 105 -345 0 -345 0 0 -540z"/>
<path d="M5580 4460 l0 -540 113 0 112 0 0 330 c0 181 3 330 6 330 4 0 30 -46
59 -102 29 -57 77 -146 106 -199 29 -52 58 -108 63 -122 6 -15 15 -27 21 -27
6 0 9 -4 6 -9 -3 -5 1 -12 10 -15 9 -3 14 -12 11 -19 -2 -6 3 -18 12 -25 9 -8
10 -10 3 -7 -11 6 -12 3 -3 -14 7 -11 15 -21 20 -21 4 0 18 -23 31 -50 l24
-51 130 3 131 3 1 538 0 537 -119 0 -119 0 3 -305 c2 -168 2 -305 -1 -305 -3
0 -12 10 -19 23 -22 33 -242 421 -290 510 l-43 77 -134 0 -134 0 0 -540z"/>
<path d="M6580 4460 l0 -540 345 0 345 0 0 54 c0 29 3 74 6 100 l7 47 -229 -2
-229 -1 -3 126 -3 126 191 0 190 0 0 100 0 100 -190 0 -190 0 0 110 0 110 225
0 225 0 0 105 0 105 -345 0 -345 0 0 -540z"/>
<path d="M7410 4460 l0 -540 120 0 120 0 0 195 0 195 63 0 64 0 83 -182 c46
-101 87 -189 93 -195 7 -9 46 -13 133 -13 68 0 124 2 124 5 0 3 -46 98 -102
211 -61 122 -98 208 -92 211 6 2 32 17 57 32 92 59 136 217 108 387 -15 86
-44 140 -96 176 -72 50 -132 58 -417 58 l-258 0 0 -540z m476 335 c60 -25 83
-122 46 -195 -25 -51 -52 -60 -174 -60 l-108 0 0 135 0 135 100 0 c66 0 113
-5 136 -15z"/>
<path d="M8564 4618 c1 -211 -2 -399 -7 -419 -4 -20 -18 -48 -32 -63 -21 -23
-30 -25 -72 -21 -38 3 -42 3 -18 -4 25 -7 26 -9 7 -10 -12 0 -39 6 -59 14 -19
8 -37 15 -39 15 -2 0 -4 -45 -4 -99 0 -115 -4 -111 109 -111 180 0 284 62 337
200 16 39 18 97 22 463 l4 417 -124 0 -125 0 1 -382z"/>
<path d="M8960 4460 l0 -540 110 0 110 0 0 540 0 540 -110 0 -110 0 0 -540z"/>
<path d="M5814 4085 c0 -49 1 -71 3 -48 2 23 2 64 0 90 -2 26 -3 8 -3 -42z"/>
</g>
</svg>
